HIERARCHY
ROOT hip
{
	OFFSET 0.000000 0.000000 0.000000 
	CHANNELS 6 Xposition Yposition Zposition Xrotation Zrotation Yrotation
	JOINT abdomen
	{
		OFFSET 0.000000 3.402643 0.000000 
		CHANNELS 3 Xrotation Zrotation Yrotation
		JOINT chest
		{
			OFFSET 0.000000 8.438565 -0.680529 
			CHANNELS 3 Xrotation Zrotation Yrotation
			JOINT neck
			{
				OFFSET 0.000000 10.207942 -0.272212 
				CHANNELS 3 Xrotation Zrotation Yrotation
				JOINT head
				{
					OFFSET 0.000000 3.130431 0.000000 
					CHANNELS 3 Xrotation Zrotation Yrotation
					End Site
					{
						OFFSET 0.000000 3.130435 0.000000 
					}
				}
			}
			JOINT lCollar
			{
				OFFSET 3.470700 6.669187 -0.816635 
				CHANNELS 3 Yrotation Zrotation Xrotation
				JOINT lShldr
				{
					OFFSET 3.198488 0.000000 0.000000 
					CHANNELS 3 Zrotation Yrotation Xrotation
					JOINT lForeArm
					{
						OFFSET 10.139888 0.000000 0.000000 
						CHANNELS 3 Yrotation Zrotation Xrotation
						JOINT lHand
						{
							OFFSET 8.370511 0.000000 0.000000 
							CHANNELS 3 Zrotation Yrotation Xrotation
							End Site
							{
								OFFSET 4.083176 0.000000 0.000000 
							}
						}
					}
				}
			}
			JOINT rCollar
			{
				OFFSET -3.470700 6.669187 -0.816635 
				CHANNELS 3 Yrotation Zrotation Xrotation
				JOINT rShldr
				{
					OFFSET -3.198488 0.000000 0.000000 
					CHANNELS 3 Zrotation Yrotation Xrotation
					JOINT rForeArm
					{
						OFFSET -10.139888 0.000000 0.000000 
						CHANNELS 3 Yrotation Zrotation Xrotation
						JOINT rHand
						{
							OFFSET -8.370511 0.000000 0.000000 
							CHANNELS 3 Zrotation Yrotation Xrotation
							End Site
							{
								OFFSET -4.083176 0.000000 0.000000 
							}
						}
					}
				}
			}
		}
	}
	JOINT lThigh
	{
		OFFSET 5.308129 -1.633274 1.361059 
		CHANNELS 3 Xrotation Zrotation Yrotation
		JOINT lShin
		{
			OFFSET -2.041588 -20.007561 0.000000 
			CHANNELS 3 Xrotation Zrotation Yrotation
			JOINT lFoot
			{
				OFFSET 0.000000 -19.190928 -1.224953 
				CHANNELS 3 Xrotation Yrotation Zrotation
				End Site
				{
					OFFSET 0.000000 -2.449906 4.627600 
				}
			}
		}
	}
	JOINT rThigh
	{
		OFFSET -5.308129 -1.633274 1.361059 
		CHANNELS 3 Xrotation Zrotation Yrotation
		JOINT rShin
		{
			OFFSET 2.041588 -20.007561 0.000000 
			CHANNELS 3 Xrotation Zrotation Yrotation
			JOINT rFoot
			{
				OFFSET 0.000000 -19.190928 -1.224953 
				CHANNELS 3 Xrotation Yrotation Zrotation
				End Site
				{
					OFFSET 0.000000 -2.449906 4.627600 
				}
			}
		}
	}
}
MOTION
Frames: 18
Frame Time: 0.033333
-0.551492 53.122093 3.150740 11.054688 -1.552734 1.933329 11.681097 3.886947 -12.096737 -11.767578 3.662110 -2.343750 37.626953 7.968750 2.841796 -64.238281 -6.582031 5.488282 1.992188 -2.001953 0.000341 -86.679688 25.927732 -32.958984 -117.455345 0.873684 -2.652709 62.190968 48.021378 67.919357 -2.001953 1.992188 0.000000 51.113281 -12.900391 -11.767580 130.142914 -1.594826 -2.479036 13.745812 45.332939 -99.347832 -12.741226 5.945686 0.233411 46.436752 -1.341031 -3.691902 23.511240 2.055159 5.493673 -11.984731 3.487642 -23.046904 2.359757 2.320671 0.164048 6.712432 -7.507447 -5.694126 
-1.158045 52.916492 6.139934 11.259767 -3.642578 -2.715464 11.590541 3.710485 -8.900681 -12.470704 4.882813 -1.171875 37.626953 7.968750 2.841796 -62.333988 -6.972657 3.388672 1.992188 -2.001953 0.000341 -88.789063 32.939457 -33.740231 -117.616325 0.850792 -2.505318 63.088291 48.351662 68.993622 -2.001953 1.992188 0.000000 52.158203 -13.945312 -13.049226 130.321671 -1.630022 -2.568494 14.690147 45.186085 -99.545441 -20.133848 9.891264 1.334208 49.580334 -1.192645 -3.878182 28.059748 6.144668 2.423839 -8.785495 6.746486 -19.967796 2.424904 2.421325 0.178052 4.227000 -6.890381 -5.354058 
-1.717668 52.679245 8.974860 11.621094 -5.380859 -7.120056 11.631725 3.713099 -5.684525 -13.388673 6.103516 0.107422 37.626953 7.968750 2.841796 -60.751949 -7.285156 1.414777 1.992188 -2.001953 0.000341 -90.800781 39.257813 -34.964523 -117.967216 0.841887 -2.485390 63.716232 48.896141 69.949226 -2.001953 1.992188 0.000000 52.636719 -14.404297 -14.133290 130.676270 -1.626197 -2.655972 15.679551 44.813416 -99.162621 -26.410000 13.307424 2.184821 52.213280 -1.036918 -4.084380 29.852083 10.953124 0.650458 -5.219738 9.165589 -16.455969 2.541886 2.567396 0.156298 2.550597 -6.221450 -4.728717 
-2.148114 52.418293 11.695443 12.031250 -6.552734 -11.124161 11.769967 3.513073 -2.525276 -14.091797 7.324219 1.230469 37.626953 7.968750 2.841796 -59.746098 -7.910156 -0.078125 1.992188 -2.001953 0.000341 -94.531250 44.238281 -37.451172 -118.338768 1.133725 -2.517718 64.355934 48.912868 71.447510 -2.001953 1.992188 0.000000 52.929688 -14.121095 -14.716793 130.871109 -1.756039 -2.368841 16.674061 44.693901 -97.728096 -31.733919 15.827730 3.669198 49.950424 -1.221714 -3.921957 24.192459 12.580511 1.056798 -1.862678 10.580240 -13.233848 2.725979 2.586301 0.274974 1.614417 -5.236062 -4.280209 
-2.511193 52.181046 14.356710 12.177734 -6.718750 -14.171064 11.687478 3.395322 0.472333 -14.765626 8.388672 2.294922 37.626953 7.968750 2.841796 -60.214844 -9.101563 0.322266 1.992188 -2.001953 0.000341 -102.500458 48.233452 -44.277458 -119.222496 1.032795 -2.366757 65.176422 49.142788 72.716415 -2.001953 1.992188 0.000000 52.255863 -13.026849 -15.012500 131.227829 -1.905325 -2.531663 17.738861 43.771805 -95.025337 -35.668785 17.985195 5.450681 44.130993 -1.321367 -3.610497 15.002135 12.710340 2.461196 1.797239 10.481091 -10.093567 2.759923 2.612017 0.062219 0.360480 -5.752536 -4.706165 
-2.626407 51.959625 17.021313 11.992188 -6.035156 -16.630861 11.732405 3.319390 3.317654 -15.488282 9.257813 3.476563 37.626953 7.968750 2.841796 -61.455078 -10.566406 1.599772 1.992188 -2.001953 0.000341 -112.597656 51.064453 -53.625214 -119.395569 1.065478 -2.290035 65.447273 49.408554 74.421608 -2.001953 1.992188 0.000000 51.396488 -13.105468 -15.363541 131.419800 -2.114038 -2.452847 17.299942 43.279446 -94.150391 -36.110779 18.084288 7.531376 34.666718 -1.525212 -2.760721 10.022018 11.043997 3.225568 4.852101 8.814629 -7.419888 3.471956 2.582410 0.124731 -0.324704 -6.010939 -4.359255 
-2.430012 51.872623 19.485485 11.621094 -4.677734 -18.946106 11.708934 3.188056 5.780080 -16.220701 9.433572 4.386376 37.626953 7.968750 2.841796 -61.699215 -12.812500 1.443146 1.992188 -2.001953 0.000341 -124.238289 52.294922 -64.853516 -119.933533 1.230054 -2.326555 66.426933 49.195316 76.800797 -2.001953 1.992188 0.000000 50.546875 -14.443358 -16.262199 131.755615 -2.082690 -2.275989 15.250440 43.372906 -95.702942 -30.875635 15.378566 9.998799 17.952322 -2.151658 -1.756346 14.276716 10.028490 4.857758 6.706450 6.003056 -5.904663 5.444525 2.554640 0.321502 0.883672 -5.528433 -4.369936 
-1.841107 51.809364 21.610142 11.054688 -2.939453 -21.016127 11.687422 3.175722 7.373888 -16.748047 8.203125 5.136720 37.626953 7.968750 2.841796 -60.742191 -13.779296 0.068359 1.992188 -2.001953 0.000341 -133.720703 52.890625 -75.566406 -120.275299 0.859742 -2.300557 67.104370 49.135883 78.192200 -2.001953 1.992188 0.000000 50.634766 -16.386719 -16.298826 131.939682 -1.926114 -2.503263 12.853117 43.955048 -97.784737 -22.634989 10.291750 11.669976 -2.554388 -2.367668 -0.022302 22.637804 8.820749 6.916420 7.023331 2.398879 -6.424818 10.024615 2.458239 0.796516 4.649794 -4.120600 -7.652966 
-0.906827 51.738194 23.076056 10.371094 -1.064453 -22.529295 11.503195 3.022973 7.857176 -17.402344 5.214844 5.811435 37.626953 7.968750 2.841796 -59.189457 -13.085938 -0.566406 1.992188 -2.001953 0.000341 40.595722 126.679680 95.847679 -120.624107 0.989990 -2.228280 67.837784 49.000671 79.092621 -2.001953 1.992188 0.000000 51.855473 -18.642578 -16.585152 131.418152 -1.860350 -2.666151 10.954324 44.167507 -99.997787 -16.617945 5.759586 12.912617 -14.429041 -1.894266 1.033316 24.194281 7.058215 9.244135 5.876184 -1.893642 -7.823334 16.173248 2.260237 1.501605 12.062732 -2.395014 -12.597627 
-1.100836 51.935902 26.041666 9.492188 1.025391 -23.730293 11.496991 2.897222 7.651192 -17.763672 2.744141 6.054688 37.626953 7.968750 2.841796 -57.851559 -12.314453 -0.539191 1.992188 -2.001953 0.000341 42.109402 126.220711 95.320381 -120.639198 1.002674 -2.384975 69.374786 48.224808 79.914925 -2.001953 1.992188 0.000000 52.675781 -20.927734 -16.849188 131.760208 -1.930799 -2.396006 10.668949 44.140556 -101.361122 -16.259279 3.994264 14.533044 -5.500625 -2.388350 0.260027 14.644238 6.997283 7.651055 1.754726 -5.880854 -8.432663 22.765917 1.667750 1.792546 31.543907 -2.377042 -17.648891 
-1.429525 52.086151 28.245518 8.447267 2.773438 -24.540543 11.859324 2.259134 6.838988 -18.085938 1.337891 5.996095 37.626953 7.968750 2.841796 -56.943359 -12.246094 -0.060665 1.992188 -2.001953 0.000341 -129.941406 53.867188 -76.757813 -120.446243 0.980179 -2.452374 70.752312 47.716614 79.764954 -2.001953 1.992188 0.000000 52.353516 -22.431639 -17.396301 130.858505 -1.581666 -2.556615 10.944934 44.216415 -102.537163 -15.587668 2.095486 15.823299 -1.716699 -2.406156 -0.080094 9.553664 6.235507 6.055817 -4.900101 -8.773794 -7.360541 34.148449 1.376829 2.582691 34.989731 -6.985650 -15.493854 
-1.774613 52.260120 30.680420 7.392578 4.511719 -24.541016 12.229859 1.697111 5.308759 -17.900391 0.273437 5.449219 37.626953 7.968750 2.841796 -56.562500 -12.099609 0.898438 1.992188 -2.001953 0.000341 -120.390625 52.675781 -66.623093 -120.453651 1.012430 -2.385403 70.885277 47.330940 78.418434 -2.001953 1.992188 0.000000 51.552738 -23.232422 -17.132759 130.519531 -1.743698 -2.651311 11.806608 44.023418 -103.446907 -14.055821 -0.051056 15.857200 2.145513 -2.412773 -0.415203 5.055459 5.959761 3.608443 -13.893667 -10.798262 -5.198686 47.476517 0.380855 3.274268 32.058754 -12.860866 -3.554311 
-1.759988 52.268028 33.493454 5.996094 6.289063 -21.660156 12.586690 1.532510 3.147666 -18.066406 -1.142578 4.687501 37.626953 7.968750 2.841796 -55.566406 -12.890625 0.576172 1.992188 -2.001953 0.000341 -109.824219 48.769531 -55.959450 -120.450302 1.006940 -2.287470 70.250618 46.589207 77.378807 -2.001953 1.992188 0.000000 50.605469 -24.091799 -16.615314 129.980392 -1.746247 -2.593105 12.390110 44.223171 -104.287422 -10.775859 -3.857337 12.998454 3.198813 -3.032874 -0.590825 2.022257 6.049667 2.360866 -22.161314 -12.486112 -3.629369 57.457130 -0.156125 3.795262 28.587317 -17.790266 5.031497 
-1.495605 52.062428 36.432945 4.589844 8.232422 -15.673468 13.077919 2.243725 0.093094 -18.203125 -3.408203 3.583984 37.626953 7.968750 2.841796 -54.218750 -14.052734 -0.090262 1.992188 -2.001953 0.000341 -99.980469 43.925785 -46.331116 -120.805908 0.962796 -2.402766 68.436981 45.983059 75.775124 -2.001953 1.992188 0.000000 49.638672 -23.984373 -14.681702 129.620102 -1.757319 -2.339590 12.662323 44.630775 -105.105423 -6.088145 -8.354910 8.907286 1.444101 -3.044308 -0.340905 0.021342 4.653575 2.296811 -28.913700 -14.344691 -2.863851 60.788036 -0.380749 3.961751 22.816370 -18.867813 5.210046 
-1.222914 51.872623 39.114426 3.710938 8.896484 -10.830078 13.479924 3.514122 -3.559248 -18.515625 -6.240234 2.128906 37.626953 7.968750 2.841796 -53.417969 -13.085937 1.123047 1.992188 -2.001953 0.000341 -93.535156 39.521484 -40.712891 -120.615005 0.969623 -2.246923 67.163765 46.242054 74.607628 -2.001953 1.992188 0.000000 49.052738 -23.447266 -12.874979 129.445328 -1.756039 -2.368842 11.826168 45.693295 -106.024208 -1.189575 -10.869977 4.808973 -0.146410 -3.008523 -0.180801 -1.798465 3.413219 1.419595 -32.818409 -15.515828 -3.263123 56.920937 -0.126873 3.775889 15.476015 -18.686811 2.061212 
-0.939928 51.777733 41.636902 3.369141 8.417969 -7.225134 13.658221 4.740958 -7.035371 -18.642578 -8.515624 0.701679 37.626953 7.968750 2.841796 -53.388672 -10.800781 3.593750 1.992188 -2.001953 0.000341 -89.970703 35.175781 -37.621326 -119.914543 0.985720 -2.325617 65.794548 46.947529 74.018646 -2.001953 1.992188 0.000000 49.072266 -23.203125 -12.269474 129.445328 -1.756039 -2.368842 11.946297 47.186489 -105.104431 2.761439 -11.251848 0.655927 -0.634832 -3.034289 -0.109239 -3.614275 3.892606 1.185786 -31.696821 -16.453648 -5.117102 43.974018 0.781244 3.143390 8.843450 -16.661407 -0.993777 
-0.914466 51.722378 44.162415 2.998047 7.714845 -3.642578 13.611211 5.601556 -10.089164 -18.105469 -9.404296 -0.625000 37.626953 7.968750 2.841796 -53.066410 -9.052734 4.609375 1.992188 -2.001953 0.000341 -87.734375 29.199219 -33.852657 -119.216209 0.852921 -2.456565 64.170265 47.936481 73.252464 -2.001953 1.992188 0.000000 49.316406 -23.730467 -13.343772 129.430710 -1.584218 -2.498111 11.333114 48.803333 -104.995995 6.275669 -10.472796 -2.175847 -0.683527 -2.665116 -0.213109 -3.853997 3.119744 -0.070444 -26.794510 -15.691579 -9.097507 27.285191 1.513516 2.219187 6.281044 -13.110154 -3.956615 
-1.516268 51.872623 46.562332 2.636719 6.650391 -0.048828 13.177404 5.420938 -12.839020 -16.542971 -7.626952 -1.835938 37.626953 7.968750 2.841796 -53.417969 -7.060547 4.658204 1.992188 -2.001953 0.000341 -86.806641 22.861328 -30.244143 -118.145714 0.880109 -2.281912 63.144913 49.068260 73.198517 -2.001953 1.992188 0.000000 48.847656 -23.095701 -14.296875 129.440903 -1.768737 -2.525702 11.360185 49.643021 -104.502342 9.203094 -8.510745 -3.860867 0.661751 -3.057622 -0.348887 -3.752366 1.355978 0.713809 -19.384474 -11.620961 -15.901959 9.732363 2.235267 0.861675 12.568365 -9.746051 -8.663153 
